<?xml version="1.0" standalone="no"?>
<!DOCTYPE svg PUBLIC "-//W3C//DTD SVG 20010904//EN"
 "http://www.w3.org/TR/2001/REC-SVG-20010904/DTD/svg10.dtd">
<svg version="1.0" xmlns="http://www.w3.org/2000/svg"
 width="242.000000pt" height="62.000000pt" viewBox="0 0 242.000000 62.000000"
 preserveAspectRatio="xMidYMid meet">
<metadata>
Created by potrace 1.13, written by Peter Selinger 2001-2015
</metadata>
<g transform="translate(0.000000,62.000000) scale(0.100000,-0.100000)"
fill="#000000" stroke="none">
<path d="M560 455 l0 -135 40 0 39 0 3 68 c3 59 5 67 23 67 18 0 20 -8 23 -67
l3 -68 39 0 c33 0 40 3 40 20 0 17 2 17 26 -7 20 -20 31 -24 57 -18 18 3 42 6
53 7 19 0 23 10 36 92 12 67 13 93 4 98 -6 4 -35 8 -64 8 -45 0 -57 -4 -80
-27 l-27 -28 38 -3 c21 -2 44 2 51 8 16 12 48 2 43 -14 -2 -6 -12 -12 -23 -14
-64 -11 -96 -25 -104 -45 -7 -18 -9 -14 -9 21 -1 44 -15 81 -35 94 -17 12 -71
9 -84 -4 -9 -9 -12 -2 -12 35 l0 47 -40 0 -40 0 0 -135z"/>
<path d="M1200 455 l0 -135 40 0 c38 0 40 2 40 30 0 17 4 30 10 30 5 0 16 -13
25 -30 14 -27 21 -30 61 -30 50 0 49 -3 2 67 -34 51 -35 63 -3 93 33 31 32 40
-7 40 -21 0 -41 -9 -60 -27 l-28 -27 0 62 0 62 -40 0 -40 0 0 -135z"/>
<path d="M1047 514 c-2 -5 -10 -36 -16 -69 -7 -33 -14 -70 -17 -83 -4 -19 2
-25 32 -38 22 -9 50 -13 69 -10 35 7 81 49 70 65 -8 14 -62 14 -70 1 -10 -16
-42 -12 -49 6 -18 48 10 95 45 73 7 -5 26 -9 41 -9 70 0 26 60 -49 67 -28 3
-53 1 -56 -3z"/>
<path d="M1620 345 c0 -143 33 -183 142 -173 40 4 57 11 75 32 21 24 23 37 23
127 l0 99 -40 0 -40 0 0 -88 c0 -91 -8 -112 -42 -112 -28 0 -38 33 -38 119 l0
81 -40 0 -40 0 0 -85z"/>
<path d="M1900 395 c0 -33 2 -35 35 -35 l35 0 0 -90 0 -90 45 0 45 0 0 90 0
90 35 0 c33 0 35 2 35 35 l0 35 -115 0 -115 0 0 -35z"/>
<path d="M2160 305 l0 -125 45 0 c45 0 45 0 45 34 0 33 1 34 50 41 58 8 90 39
90 87 0 66 -39 88 -156 88 l-74 0 0 -125z"/>
<path d="M375 293 c-30 -8 -55 -34 -55 -58 0 -29 28 -53 75 -63 21 -4 40 -13
42 -19 6 -17 -25 -23 -41 -8 -8 8 -29 15 -46 15 -27 0 -31 -3 -28 -22 8 -61
164 -65 188 -6 7 18 9 8 9 -39 l1 -63 40 0 40 0 0 42 c0 33 3 39 12 30 21 -21
70 -14 100 15 15 15 28 22 28 16 0 -23 32 -43 70 -43 21 0 41 4 45 10 3 5 12
7 19 4 10 -4 17 13 25 63 7 37 15 78 18 90 4 18 -1 25 -23 34 -56 21 -144 -7
-144 -47 0 -17 43 -19 69 -2 19 12 51 5 51 -11 0 -5 -23 -14 -52 -20 -28 -7
-57 -16 -64 -22 -10 -8 -14 -2 -19 24 -12 60 -70 102 -111 79 -9 -5 -36 -7
-60 -4 l-44 5 0 -64 c0 -59 -1 -62 -15 -42 -9 12 -35 26 -65 33 -27 7 -50 16
-50 21 0 12 37 11 45 -1 7 -11 58 -14 68 -4 12 12 -13 42 -44 53 -33 11 -50
12 -84 4z"/>
<path d="M1019 294 c-12 -4 -21 -29 -31 -87 -15 -79 -14 -83 5 -99 36 -33 135
-14 151 28 6 16 8 16 21 -3 32 -46 133 -56 176 -17 33 29 23 37 -40 30 -44 -5
-61 -3 -70 8 -18 21 0 28 71 25 38 -2 63 2 65 8 2 6 -3 27 -11 47 -43 102
-206 69 -206 -41 0 -35 0 -35 -35 -29 -20 4 -35 3 -35 -2 0 -16 -32 -23 -46
-11 -36 30 -2 105 36 81 19 -12 80 -6 80 8 0 29 -88 66 -131 54z"/>
</g>
</svg>
